<?xml version="1.0" encoding="UTF-8" ?>
<!DOCTYPE svg PUBLIC "-//W3C//DTD SVG 1.1//EN" "http://www.w3.org/Graphics/SVG/1.1/DTD/svg11.dtd">
<svg width="265pt" height="174pt" viewBox="0 0 265 174" version="1.1" xmlns="http://www.w3.org/2000/svg">
<g id="#0096dbff">
<path fill="#0096db" opacity="1.00" d=" M 149.45 31.44 C 159.39 21.73 168.92 11.57 179.06 2.06 C 174.87 8.44 171.49 15.44 166.44 21.20 C 163.63 23.82 160.82 26.47 158.56 29.59 C 146.89 45.59 135.45 61.76 123.61 77.63 C 121.10 80.95 118.85 84.45 116.79 88.06 C 122.50 84.64 127.61 80.36 132.72 76.13 C 134.04 76.06 134.78 75.39 134.95 74.13 C 140.24 70.77 144.82 66.45 149.92 62.85 C 153.37 61.17 157.24 61.46 160.84 62.42 C 143.61 84.61 125.64 106.21 108.25 128.27 C 107.30 129.27 106.43 130.70 104.89 130.70 C 97.64 131.14 90.36 130.69 83.10 130.90 C 83.23 120.58 82.98 110.26 83.16 99.95 C 83.00 97.84 84.66 96.37 85.95 94.97 C 98.70 82.38 111.26 69.59 123.98 56.97 C 126.17 54.80 128.31 52.57 130.32 50.22 C 128.71 50.62 127.11 51.08 125.50 51.44 C 120.70 52.37 115.98 53.67 111.44 55.46 C 102.25 59.04 92.87 62.10 83.81 65.97 L 83.10 66.27 C 83.16 55.26 83.10 44.24 83.13 33.22 C 102.76 33.37 122.39 33.24 142.02 33.41 C 144.60 33.37 147.60 33.62 149.45 31.44 Z" />
</g>
<g id="#006abfff">
<path fill="#006abf" opacity="1.00" d=" M 158.56 29.59 C 160.82 26.47 163.63 23.82 166.44 21.20 C 164.15 26.69 160.49 31.42 157.42 36.48 C 149.68 48.93 141.50 61.10 134.11 73.76 C 133.76 74.36 133.06 75.54 132.72 76.13 C 127.61 80.36 122.50 84.64 116.79 88.06 C 118.85 84.45 121.10 80.95 123.61 77.63 C 135.45 61.76 146.89 45.59 158.56 29.59 Z" />
</g>
<g id="#0087d2ff">
<path fill="#0087d2" opacity="1.00" d=" M 149.92 62.85 C 159.44 54.99 169.08 47.24 178.91 39.77 C 173.30 47.63 167.08 55.05 160.84 62.42 C 157.24 61.46 153.37 61.17 149.92 62.85 Z" />
</g>
<g id="#00c2f3ff">
<path fill="#00c2f3" opacity="1.00" d=" M 111.44 55.46 C 115.98 53.67 120.70 52.37 125.50 51.44 C 120.76 55.61 115.02 58.31 109.79 61.75 C 106.73 63.56 103.76 66.03 100.06 66.25 C 94.65 66.53 89.21 66.39 83.81 65.97 C 92.87 62.10 102.25 59.04 111.44 55.46 Z" />
</g>
<g id="#98c0beff">
<path fill="#98c0be" opacity="1.00" d=" M 132.72 76.13 C 133.06 75.54 133.76 74.36 134.11 73.76 L 134.95 74.13 C 134.78 75.39 134.04 76.06 132.72 76.13 Z" />
</g>
<g id="#0090d7ff">
<path fill="#0090d7" opacity="1.00" d=" M 141.67 99.10 C 144.39 98.41 147.20 98.22 150.00 98.24 C 157.27 98.31 164.55 98.13 171.83 98.14 C 171.74 109.05 171.74 119.95 171.83 130.86 C 153.40 130.64 134.96 130.98 116.54 130.47 C 117.58 129.53 118.57 128.51 119.78 127.78 C 124.60 125.55 129.18 122.76 132.89 118.90 C 139.98 111.76 148.54 106.28 155.34 98.85 C 150.79 98.71 146.23 98.87 141.67 99.10 Z" />
</g>
<g id="#0069bfff">
<path fill="#0069bf" opacity="1.00" d=" M 141.67 99.10 C 146.23 98.87 150.79 98.71 155.34 98.85 C 148.54 106.28 139.98 111.76 132.89 118.90 C 129.18 122.76 124.60 125.55 119.78 127.78 C 126.12 117.52 135.00 109.12 141.67 99.10 Z" />
</g>
<g id="#0071c4ff">
<path fill="#0071c4" opacity="1.00" d=" M 1.29 149.11 C 7.41 148.77 13.55 148.70 19.67 149.19 C 19.07 150.97 18.84 153.04 17.37 154.37 C 14.11 157.47 10.57 160.28 7.64 163.72 C 11.54 163.89 15.45 163.91 19.35 163.91 C 19.37 164.83 19.41 166.67 19.43 167.59 C 12.98 167.69 6.51 167.91 0.06 167.35 C 2.46 161.18 8.76 158.06 12.64 152.97 C 8.85 152.75 5.06 152.70 1.27 152.69 C 1.27 151.49 1.28 150.30 1.29 149.11 Z" />
<path fill="#0071c4" opacity="1.00" d=" M 30.64 150.66 C 31.49 147.97 36.26 148.30 37.04 150.91 C 39.59 156.55 42.07 162.25 44.11 168.10 C 41.52 167.99 39.29 166.83 37.66 164.83 C 32.40 163.67 27.87 166.47 23.22 168.36 C 25.50 162.38 27.91 156.44 30.64 150.66 M 33.63 154.84 C 32.74 156.90 31.85 158.97 30.93 161.02 C 32.76 160.98 34.59 160.94 36.43 160.89 C 35.54 158.86 34.61 156.84 33.63 154.84 Z" />
<path fill="#0071c4" opacity="1.00" d=" M 48.16 148.93 C 49.57 149.03 50.97 149.13 52.38 149.23 C 52.43 151.74 52.52 154.26 52.70 156.77 C 55.09 154.50 57.06 151.80 59.64 149.73 C 61.32 148.90 63.28 149.00 65.10 148.71 C 63.19 151.37 61.13 153.90 58.99 156.38 C 61.37 160.36 64.01 164.19 66.82 167.88 C 64.95 167.80 63.09 167.74 61.23 167.68 C 59.38 165.00 57.54 162.32 55.63 159.69 C 53.60 161.91 52.28 164.64 52.08 167.67 C 50.77 167.73 49.45 167.79 48.14 167.85 C 47.90 161.55 47.88 155.24 48.16 148.93 Z" />
<path fill="#0071c4" opacity="1.00" d=" M 68.28 148.93 C 69.70 148.99 71.12 149.06 72.54 149.13 C 72.53 153.31 71.98 157.60 73.04 161.69 C 74.32 165.05 79.57 165.31 81.17 162.09 C 82.97 158.00 82.13 153.36 82.24 149.03 C 83.59 148.97 84.95 148.92 86.30 148.87 C 86.32 153.68 87.09 158.75 85.22 163.32 C 82.54 169.56 72.28 169.84 69.41 163.60 C 67.41 159.00 68.46 153.79 68.28 148.93 Z" />
<path fill="#0071c4" opacity="1.00" d=" M 90.11 148.92 C 93.95 148.91 97.88 148.57 101.63 149.56 C 107.26 151.29 107.23 160.87 101.74 162.78 C 99.41 163.52 96.93 163.48 94.51 163.64 C 94.32 165.00 94.13 166.35 93.93 167.71 C 92.65 167.76 91.37 167.80 90.09 167.84 C 89.92 161.53 89.90 155.22 90.11 148.92 M 94.94 158.60 C 96.54 158.79 98.15 158.97 99.77 158.95 C 100.96 157.51 100.97 155.56 101.39 153.83 C 99.26 153.57 97.11 153.39 94.96 153.40 C 93.08 153.83 93.07 158.15 94.94 158.60 Z" />
<path fill="#0071c4" opacity="1.00" d=" M 110.00 149.07 C 111.28 149.06 112.55 149.05 113.83 149.06 C 114.07 151.55 114.28 154.05 114.57 156.54 C 117.02 154.36 119.02 151.70 121.60 149.68 C 123.33 149.04 125.19 149.00 127.00 148.77 C 125.02 151.41 122.51 153.74 121.20 156.82 C 123.19 160.67 125.96 164.04 128.25 167.72 C 126.54 167.73 124.84 167.75 123.14 167.76 C 121.29 165.07 119.43 162.39 117.51 159.75 C 115.39 161.96 114.02 164.70 113.52 167.72 C 112.34 167.75 111.16 167.78 109.99 167.81 C 109.72 161.57 109.70 155.31 110.00 149.07 Z" />
<path fill="#0071c4" opacity="1.00" d=" M 132.28 148.93 C 133.70 148.99 135.11 149.07 136.53 149.14 C 136.41 155.32 136.39 161.51 136.54 167.70 C 135.11 167.74 133.69 167.79 132.26 167.84 C 132.26 161.53 132.24 155.23 132.28 148.93 Z" />
<path fill="#0071c4" opacity="1.00" d=" M 147.77 148.96 C 151.65 148.95 155.66 148.46 159.43 149.62 C 164.47 151.62 164.82 159.55 160.45 162.41 C 157.91 163.56 155.03 163.42 152.31 163.62 C 152.12 165.00 151.93 166.38 151.75 167.76 C 150.43 167.78 149.12 167.79 147.80 167.81 C 147.56 161.53 147.58 155.24 147.77 148.96 M 152.36 152.68 C 152.30 154.76 152.25 156.84 152.21 158.92 C 154.11 158.95 156.01 158.97 157.92 159.00 C 158.42 157.61 158.91 156.22 159.40 154.83 C 157.14 153.85 154.78 153.14 152.36 152.68 Z" />
<path fill="#0071c4" opacity="1.00" d=" M 173.86 150.77 C 174.53 148.37 177.62 148.55 179.46 149.35 C 182.72 155.41 185.00 161.97 187.72 168.29 C 185.06 167.88 182.64 166.73 180.77 164.78 C 175.72 163.75 171.37 166.39 166.93 168.26 C 168.65 162.22 171.30 156.49 173.86 150.77 M 174.45 160.91 C 176.26 160.96 178.09 161.00 179.91 161.04 C 179.02 158.97 178.14 156.89 177.28 154.82 C 176.28 156.82 175.35 158.86 174.45 160.91 Z" />
<path fill="#0071c4" opacity="1.00" d=" M 191.31 148.99 C 195.86 149.17 201.30 147.74 205.14 150.85 C 208.51 154.17 206.79 159.18 204.31 162.46 C 205.20 164.26 206.12 166.04 207.01 167.84 C 205.50 167.77 204.00 167.69 202.49 167.61 C 200.92 165.31 198.94 163.25 196.15 162.54 C 195.89 164.27 195.66 166.02 195.44 167.77 C 194.07 167.77 192.70 167.77 191.34 167.78 C 191.36 161.52 191.37 155.25 191.31 148.99 M 196.07 152.75 C 196.05 154.95 196.04 157.15 196.06 159.35 C 197.55 159.09 199.07 158.89 200.53 158.45 C 202.57 158.00 201.98 155.49 202.52 153.98 C 200.38 153.51 198.23 153.10 196.07 152.75 Z" />
<path fill="#0071c4" opacity="1.00" d=" M 210.52 156.47 C 208.43 150.70 216.19 147.09 220.78 149.15 C 223.57 149.77 224.42 152.65 225.23 155.00 C 221.81 154.21 218.52 152.32 214.91 152.78 C 214.83 153.30 214.68 154.34 214.60 154.87 C 218.13 157.10 224.01 156.88 225.66 161.29 C 226.82 167.32 218.81 169.55 214.38 167.51 C 211.33 166.78 210.47 163.59 209.95 160.92 C 213.69 162.30 217.25 164.36 221.33 164.57 C 221.13 163.31 220.93 162.05 220.71 160.80 C 217.20 159.92 212.73 159.77 210.52 156.47 Z" />
<path fill="#0071c4" opacity="1.00" d=" M 229.43 149.08 C 234.25 148.82 239.08 148.80 243.90 149.05 C 243.93 150.27 243.95 151.50 243.96 152.72 C 240.53 152.73 237.10 152.76 233.68 152.82 C 233.78 154.09 233.90 155.36 234.03 156.63 C 236.77 156.63 239.52 156.64 242.28 156.68 C 242.27 157.55 242.26 159.31 242.25 160.19 C 239.45 160.22 236.66 160.25 233.87 160.29 C 233.83 161.45 233.81 162.62 233.78 163.78 C 237.15 163.86 240.53 163.94 243.90 164.08 C 243.92 165.30 243.94 166.53 243.95 167.76 C 239.11 167.74 234.26 167.74 229.41 167.72 C 229.58 161.50 229.57 155.29 229.43 149.08 Z" />
<path fill="#0071c4" opacity="1.00" d=" M 248.25 148.94 C 252.80 149.18 258.28 147.72 262.09 150.91 C 265.42 154.37 263.25 159.37 261.16 162.87 C 262.11 164.50 263.06 166.14 264.01 167.78 C 262.42 167.76 260.84 167.73 259.26 167.71 C 258.15 166.18 257.06 164.64 255.95 163.11 C 255.16 163.11 253.56 163.10 252.77 163.10 C 252.65 164.63 252.54 166.17 252.44 167.71 C 251.05 167.75 249.66 167.79 248.27 167.84 C 248.25 161.54 248.27 155.24 248.25 148.94 M 252.95 158.60 C 254.98 158.63 257.02 158.52 259.06 158.34 C 259.05 156.78 259.05 155.22 259.06 153.66 C 257.03 153.48 254.99 153.36 252.95 153.40 C 251.07 153.85 251.06 158.15 252.95 158.60 Z" />
</g>
<g id="#6c92a4e0">
<path fill="#6c92a4" opacity="0.88" d=" M 94.94 158.60 C 93.07 158.15 93.08 153.83 94.96 153.40 C 95.15 155.13 95.14 156.87 94.94 158.60 Z" />
</g>
<g id="#669ebdff">
<path fill="#669ebd" opacity="1.00" d=" M 252.95 158.60 C 251.06 158.15 251.07 153.85 252.95 153.40 C 253.13 155.13 253.13 156.87 252.95 158.60 Z" />
</g>
<g id="#070a0d11">
<path fill="#070a0d" opacity="0.07" d=" M 174.45 160.91 C 175.35 158.86 176.28 156.82 177.28 154.82 C 178.14 156.89 179.02 158.97 179.91 161.04 C 178.09 161.00 176.26 160.96 174.45 160.91 Z" />
</g>
</svg>
